# xmcd
#
# Track frame offsets:
# 150
# 14847
# 30237
# 44514
# 59522
# 74492
# 89501
# 105037
# 123975
# 140156
# 155243
# 172617
# 188916
# 204804
# 220380
# 240517
# 260970
# 278668
# 296363
# 311391
# 328667
#
# Disc length: 4444 seconds
#
#
# Revision: 0
# Processed by: cddbd v1.5.2PL0 Copyright (c) Steve Scherf et al.
# Submitted via: FreeRIP 2.944 
#
DISCID=36115a15
DTITLE=McMurtry-L-LD3 - Dead-Mans-Walk16
DYEAR=1995
DGENRE=Booty Bass
TTITLE0=1601
TTITLE1=1602
TTITLE2=1603
TTITLE3=1604
TTITLE4=1605
TTITLE5=1606
TTITLE6=1607
TTITLE7=1608
TTITLE8=1609
TTITLE9=1610
TTITLE10=1611
TTITLE11=1612
TTITLE12=1613
TTITLE13=1614
TTITLE14=1615
TTITLE15=1616
TTITLE16=1617
TTITLE17=1618
TTITLE18=1619
TTITLE19=1620
TTITLE20=1621
EXTD=Dead Man's Walk-Lonesome Dove 3rd written\n1995 read by Jack Garrett by Larry McMurtry\nrecorded books - chrono1
EXTT0=
EXTT1=
EXTT2=
EXTT3=
EXTT4=
EXTT5=
EXTT6=
EXTT7=
EXTT8=
EXTT9=
EXTT10=
EXTT11=
EXTT12=
EXTT13=
EXTT14=
EXTT15=
EXTT16=
EXTT17=
EXTT18=
EXTT19=
EXTT20=
PLAYORDER=
